PathFileType	4	(X/Y/Z)	pose_F01_0-87.trc
DataRate	CameraRate	NumFrames	NumMarkers	Units	OrigDataRate	OrigDataStartFrame	OrigNumFrames
30	30	10	21	m	30	69	87
Frame#	Time	CHip			RHip			RKnee			RAnkle			RBigToe			RSmallToe			RHeel			LHip			LKnee			LAnkle			LBigToe			LSmallToe			LHeel			Neck			Nose			RShoulder			RElbow			RWrist			LShoulder			LElbow			LWrist			
		X1	Y1	Z1	X2	Y2	Z2	X3	Y3	Z3	X4	Y4	Z4	X5	Y5	Z5	X6	Y6	Z6	X7	Y7	Z7	X8	Y8	Z8	X9	Y9	Z9	X10	Y10	Z10	X11	Y11	Z11	X12	Y12	Z12	X13	Y13	Z13	X14	Y14	Z14	X15	Y15	Z15	X16	Y16	Z16	X17	Y17	Z17	X18	Y18	Z18	X19	Y19	Z19	X20	Y20	Z20	X21	Y21	Z21	
69	2.3	-0.22846426323727614	1.850425291087161	-0.8229268316538407	-0.23869594837317085	1.8496967041395906	-0.7636429298999725																-0.9713603345952956	1.7469582087647637	-0.17855721123614213	-0.2227374324349759	1.6993535856616815	-0.6703468122369111													-0.22386943533350334	2.0037705145324285	-0.8663291985088688	-0.19814900664012247	2.051245373621093	-0.9016597123254294	-0.24018362393835782	2.0074402523947987	-0.778382595742212	-0.26562784126859795	1.9686487131464543	-0.6511176679251861	-0.24055342292405055	1.940920293385558	-0.5712503149222089	-0.2083288715922805	2.0009052200618225	-0.9541455880593089	-0.18296878143618917	1.9466221086018638	-0.9753070003503612	-0.18568426554884523	2.0081436233213537	-0.936762857207853
70	2.3333333333333335	-0.2281580223969918	1.8497337651522048	-0.8212347963083003	-0.23800214202749226	1.849426051824337	-0.7604740025122532																-0.978216323109914	1.7480465853809062	-0.16658414929874577	-0.2227374324349759	1.6993535856616815	-0.6703468122369111													-0.22612513345013427	2.004018644444278	-0.863973064539077	-0.19968100094923869	2.0521821742608513	-0.8969731607178387	-0.24020027036289007	2.0072232547112483	-0.7783538777938648	-0.2557115025572699	1.9674038418596198	-0.6559734240402786	-0.23679711268641196	1.9413822972571513	-0.5694872601956648	-0.20999472108618145	2.0003664261832195	-0.949041597167167	-0.18444028386911956	1.9476223802269976	-0.9702258324365112	-0.18794569481755544	2.0056797902444243	-0.9340516680370028
71	2.3666666666666667	-0.22863334339853322	1.8519974879793337	-0.821142335112496	-0.2385277250658641	1.851630615772307	-0.7603587581664941																-0.9845295813278455	1.7518972115323712	-0.15940117093607592	-0.2227374324349759	1.6993535856616815	-0.6703468122369111													-0.22761903515218243	2.003960517521245	-0.8588759588242448	-0.19890509998909647	2.054275397996161	-0.8941297294892951	-0.23942271815705896	2.007071962099633	-0.775228948644576	-0.26119160254960444	1.9620314293796606	-0.6630768136534464	-0.22871548909583558	1.9342524631686224	-0.5952387347538196	-0.20989044593760117	2.002770001565019	-0.9488407574915447	-0.18531673013808161	1.9437459511816602	-0.9725351400868041	-0.1873751614563676	2.001006815441444	-0.9310559744595209
72	2.4	-0.22834701567482885	1.8484378658706648	-0.8211254433040892	-0.23892476517996103	1.849434250869699	-0.7634163168087866																-0.968071201590019	1.750911220533589	-0.17740548793136254	-0.2227374324349759	1.6993535856616815	-0.6703468122369111													-0.22624830034522558	2.0026495359788954	-0.8639948256479968	-0.2003822327821587	2.055164239632265	-0.8889586184212126	-0.24190250319111922	2.004099387439571	-0.7732025212690673	-0.2604524891679981	1.9563933991616285	-0.6679385921957885	-0.22288134930971326	1.9296526525761195	-0.621727160286346	-0.20812422321876045	2.0027498281878318	-0.9539478154975657	-0.1878608747397395	1.9396921746810474	-0.969982938870969	-0.18495491833309047	1.9992662272441983	-0.9328036861606703
73	2.433333333333333	-0.22703853430114648	1.846792404189773	-0.8260200109503986	-0.23928674174961514	1.8471226611069698	-0.7631685956219758																-0.9665252687111127	1.7471529431873771	-0.18317147046524188	-0.2227374324349759	1.6993535856616815	-0.6703468122369111													-0.22622899724724546	2.0014400702319404	-0.8637859487352711	-0.19809628200074375	2.055168063827658	-0.8910484120149635	-0.24050118107130772	2.0027655710981933	-0.7780276118706959	-0.25889419603222896	1.950759705017014	-0.6808985321799128	-0.22300490629912914	1.9205524714711044	-0.6493699110839045	-0.2083480384881896	1.9998571989473453	-0.9537248968306397	-0.18862102481418386	1.9358212841077571	-0.9726188100213196	-0.18311902277094189	2.002907231976966	-0.9381315183641572
74	2.466666666666667	-0.22859766834617457	1.8465386219886242	-0.8322823473636455	-0.23776332334101222	1.8444664226935992	-0.7684713338992437																-0.9611633890491478	1.7462589037974694	-0.19440060895122668	-0.2227374324349759	1.6993535856616815	-0.6703468122369111													-0.22236484058313088	2.0014118623360417	-0.8712120668751503	-0.19799732696943667	2.0571384140700832	-0.8913588105628197	-0.23838941202137873	2.00012037252478	-0.7801316965357573	-0.25644651648307615	1.945433493118575	-0.6996571481667292	-0.21644935071519822	1.9137755043182687	-0.6840694169702626	-0.20652628733867207	1.9999776218192127	-0.959027952695688	-0.18850004405214793	1.9305668229077295	-0.9832679671721808	-0.18348721474707344	1.9929708573091056	-0.9486625533056987
75	2.5	-0.22674884035643839	1.8460998120433736	-0.8379053410063487	-0.2382432452081994	1.8451233622184322	-0.7718548118566354																-0.9523298102245507	1.7450951813432465	-0.21088310354714784	-0.2227374324349759	1.6993535856616815	-0.6703468122369111													-0.22154018487142485	2.002017241502755	-0.879393579852941	-0.19800885262869264	2.0591574076645163	-0.8915838272940669	-0.2408188517613415	2.0022853261854	-0.7893482746694477	-0.25423731987192555	1.9412373281725344	-0.720861299365153	-0.21954930126152414	1.906261214344468	-0.7042190879859733	-0.20171811016235702	2.000107806935058	-0.9636779551719411	-0.18959188368029622	1.9262463120920392	-1.0000500098942957	-0.18713332689243534	1.993284056329184	-0.964032394038477
76	2.533333333333333	-0.22635734371711638	1.8458342247870994	-0.8460701838290087	-0.23894110112430075	1.8462660912285371	-0.7830620802559565																-0.9439738644223676	1.7466869972127794	-0.22680256487881373	-0.2227374324349759	1.6993535856616815	-0.6703468122369111													-0.22166603904918952	2.0007959515734	-0.8794927764196363	-0.19720315719796727	2.0602387306776175	-0.8886844756860336	-0.24087135939630078	2.000838382077029	-0.7890853501475773	-0.25407891363258206	1.9371353179859523	-0.7289445539831818	-0.22526478272538014	1.8983544350156927	-0.7223566889798947	-0.19926959723042928	2.001560094825598	-0.966214305180891	-0.190339518158649	1.923467781354817	-1.0029101272874117	-0.1816156056145923	1.9875260866521423	-0.9889714597019226
77	2.566666666666667	-0.22494674501046988	1.8438706709484012	-0.8511761440308312	-0.23740526036749537	1.8450465040485642	-0.7883930243467916																-0.9337749747100165	1.7483929694540468	-0.24624366838692432	-0.2227374324349759	1.6993535856616815	-0.6703468122369111													-0.22013298643206952	2.000826268466985	-0.8846624724850495	-0.1994543605725076	2.061564585873824	-0.8867882066616732	-0.24093082438975716	1.9999890201855621	-0.7892392027515591	-1.2725034380426643	1.8326657270180644	0.29375947506949784	-0.22369012401874327	1.88198842852268	-0.737189873968052	-0.1983130151125121	2.002572419542984	-0.9744382685091711	-0.19019091016921158	1.9240650413198568	-1.0137058599760813	-0.1807520374877711	1.9874122608229299	-0.9983450871672257
78	2.6	-0.22454307018090364	1.8464551829632914	-0.8517710278534715	-0.2377684488860362	1.8441570202690993	-0.7899806036021138																-0.9282580117050346	1.7465088244286884	-0.2520389979878793	-0.2227374324349759	1.6993535856616815	-0.6703468122369111													-0.2200499721169081	2.000993353474803	-0.8848256839712336	-0.19947931841068964	2.0616676778116796	-0.8866944945851276	-0.2417351652955628	2.0002865658298137	-0.7921835487494748	-1.27185722950284	1.833198907482408	0.2924545628166852	-0.2263488432040293	1.8741029934570204	-0.7460198588716641	-0.19345702988584862	2.0022819542474948	-0.9790888383902117	-0.19281093920976466	1.9235716309445834	-1.0253312880299887	-0.17568635718147693	1.9785296766326286	-1.0000484114057369
